<svg xmlns="http://www.w3.org/2000/svg" width="600" height="421" fill="none"><g clip-path="url(#a)"><path fill="#F2F2F2" d="M490.063 263.849H103.627a9.962 9.962 0 0 1-9.95-9.95V15.616a7.298 7.298 0 0 1 7.29-7.29h391.63a7.423 7.423 0 0 1 7.416 7.416v238.157a9.96 9.96 0 0 1-9.95 9.95Z"/><path fill="#fff" d="M475.966 249.758H115.819c-5.28 0-9.575-4.022-9.575-8.966v-207.5c0-3.666 3.183-6.65 7.095-6.65h364.989c3.977 0 7.213 3.033 7.213 6.76v207.39c0 4.944-4.296 8.966-9.575 8.966Z"/><path fill="#CCC" d="M499.875 15.045H93.539V9.98A9.994 9.994 0 0 1 103.525 0h386.364a9.996 9.996 0 0 1 9.986 9.98v5.065Z"/><path fill="#fff" d="M111.686 10.121a2.583 2.583 0 1 0 0-5.165 2.583 2.583 0 0 0 0 5.165ZM121.491 10.121a2.583 2.583 0 1 0 0-5.165 2.583 2.583 0 0 0 0 5.165ZM131.296 10.121a2.583 2.583 0 1 0 0-5.167 2.583 2.583 0 0 0 0 5.167Z"/><path fill="#CCC" d="M436.325 214.956H157.227a10.564 10.564 0 0 1-10.553-10.553V69.838a7.898 7.898 0 0 1 7.892-7.893H438.86a8.028 8.028 0 0 1 8.018 8.019v134.439a10.563 10.563 0 0 1-10.553 10.553ZM154.566 63.151a6.695 6.695 0 0 0-6.686 6.687v134.565a9.355 9.355 0 0 0 9.347 9.347h279.098a9.359 9.359 0 0 0 9.347-9.347V69.963a6.817 6.817 0 0 0-6.812-6.812H154.566Z"/><path fill="#F2F2F2" d="M166.875 204.403h259.802a9.648 9.648 0 0 0 9.648-9.648V82.263a9.646 9.646 0 0 0-9.648-9.648H166.875a9.65 9.65 0 0 0-9.648 9.648v112.492a9.647 9.647 0 0 0 9.648 9.648Z"/><path fill="#CCC" d="M196.374 105.345a5.428 5.428 0 1 0 0-10.855 5.428 5.428 0 0 0 0 10.855ZM196.374 125.846a5.427 5.427 0 1 0 0-10.854 5.427 5.427 0 0 0 0 10.854ZM196.374 146.348a5.427 5.427 0 1 0 0-10.854 5.427 5.427 0 0 0 0 10.854ZM196.374 166.85a5.427 5.427 0 1 0 0-10.854 5.427 5.427 0 0 0 0 10.854ZM402.002 100.52H223.509a.602.602 0 1 1 0-1.206h178.493a.602.602 0 1 1 0 1.206ZM402.002 121.022H223.509a.602.602 0 0 1-.426-1.029.603.603 0 0 1 .426-.177h178.493a.603.603 0 0 1 0 1.206ZM402.002 141.524H223.509a.602.602 0 0 1-.426-1.029.603.603 0 0 1 .426-.177h178.493a.603.603 0 0 1 0 1.206ZM402.002 162.026H223.509a.602.602 0 0 1-.426-1.029.603.603 0 0 1 .426-.177h178.493a.603.603 0 0 1 0 1.206Z"/><path fill="#f7a600" d="M257.278 182.53H239.79a3.018 3.018 0 0 1-3.015-3.015v-16.281a3.018 3.018 0 0 1 3.015-3.015h17.488a3.02 3.02 0 0 1 3.015 3.015v16.281a3.018 3.018 0 0 1-3.015 3.015ZM296.475 182.529h-17.487a3.018 3.018 0 0 1-3.015-3.015V142.73a3.02 3.02 0 0 1 3.015-3.015h17.487a3.018 3.018 0 0 1 3.015 3.015v36.784a3.02 3.02 0 0 1-3.015 3.015ZM336.274 182.529h-17.487a3.01 3.01 0 0 1-2.131-.884 3.015 3.015 0 0 1-.885-2.131v-57.286a3.017 3.017 0 0 1 3.016-3.015h17.487a3.02 3.02 0 0 1 3.015 3.015v57.286a3.018 3.018 0 0 1-3.015 3.015ZM377.278 182.531H359.79a3.019 3.019 0 0 1-3.015-3.016V102.33a3.018 3.018 0 0 1 3.015-3.016h17.488a3.017 3.017 0 0 1 3.015 3.016v77.185a3.018 3.018 0 0 1-3.015 3.016Z"/><path fill="#3F3D56" d="M402.002 182.53H223.509a.602.602 0 0 1-.426-1.029.603.603 0 0 1 .426-.177h178.493a.603.603 0 0 1 0 1.206Z"/><path fill="#FFB8B8" d="M480.422 295.02a6.07 6.07 0 0 1 4.374-2.683 6.062 6.062 0 0 1 4.865 1.632l19.149-9.883-1.191 11.134-18.002 7.678a6.097 6.097 0 0 1-9.195-7.878Z"/><path fill="#3F3D56" d="M496.9 299.172a2.714 2.714 0 0 1-.919-1.333l-1.523-4.92a2.723 2.723 0 0 1 .957-2.968l15.52-11.723 16.809-31.183a8.755 8.755 0 0 1 2.577-2.235 8.763 8.763 0 0 1 3.236-1.078 8.736 8.736 0 0 1 9.765 7.583 8.736 8.736 0 0 1-1.769 6.452l-9.563 20.184a27.965 27.965 0 0 1-14.149 13.686l-18.188 7.889c-.35.151-.728.228-1.109.224a2.736 2.736 0 0 1-1.644-.578Z"/><path fill="#FFB8B8" d="M541.975 234.032c8.179 0 14.81-6.631 14.81-14.811s-6.631-14.811-14.81-14.811c-8.18 0-14.811 6.631-14.811 14.811s6.631 14.811 14.811 14.811ZM535.967 413.51h-7.392l-3.516-28.516 10.911.001-.003 28.515Z"/><path fill="#2F2E41" d="M523.293 411.396h14.258v8.977h-23.235a8.981 8.981 0 0 1 8.977-8.977Z"/><path fill="#FFB8B8" d="m560.088 413.511-7.392-.001-3.516-28.516 10.911.001-.003 28.516Z"/><path fill="#2F2E41" d="M547.414 411.398h14.258v8.977h-23.234a8.961 8.961 0 0 1 2.629-6.347 8.981 8.981 0 0 1 6.347-2.63ZM560.628 406.274h-8.663a2.72 2.72 0 0 1-2.62-2.008l-12.47-46.252a.304.304 0 0 0-.527-.109.3.3 0 0 0-.065.206l2.519 43.865a2.714 2.714 0 0 1-2.935 2.859l-9.737-.812a2.719 2.719 0 0 1-2.47-2.39l-8.871-92.108 3.432 2.06 32.158-5.46 12.939 97.077a2.711 2.711 0 0 1-2.69 3.072Z"/><path fill="#3F3D56" d="M525.544 319.248a19.871 19.871 0 0 1-10.065-2.833 2.705 2.705 0 0 1-1.288-2.767c1.131-6.927 7.045-42.457 12.427-61.827 2.192-7.889 7.038-12.138 14.404-12.629 10.775-.707 20.352 7.723 21.349 18.814 1.759 19.567-5.387 47.367-8.541 58.411a2.706 2.706 0 0 1-3.076 1.923 2.7 2.7 0 0 1-1.198-.532l-6.429-5.001a2.132 2.132 0 0 0-2.723.113c-5.419 4.834-10.567 6.328-14.86 6.328Z"/><path fill="#000" d="m546.806 267.58 5.427 22.915-7.84 19.296 5.428-18.693-3.015-23.518Z" opacity=".2"/><path fill="#2F2E41" d="M550.426 231.4a9.987 9.987 0 0 0 3.852-.697c.539-.208 1.099-.379 1.637-.587 4.753-1.836 7.884-6.897 7.997-11.991.112-5.094-2.526-10.038-6.443-13.297-3.917-3.258-8.99-4.931-14.071-5.318-5.472-.417-11.635.97-14.693 5.528-.814 1.213-1.383 2.685-.901 4.149.145.442.403.839.748 1.15 1.366 1.215 2.727.301 4.12.221 1.913-.111 3.632 1.438 4.249 3.252.618 1.815.346 3.812-.153 5.663a14.12 14.12 0 0 0-.713 3.443 3.463 3.463 0 0 0 1.434 3.048c1.196.723 2.766.305 3.962-.417 1.197-.721 2.231-1.725 3.523-2.255 1.292-.531 3.029-.414 3.781.764.239.428.401.896.478 1.38.674 3.072.519 2.891 1.193 5.964Z"/><path fill="#E6E6E6" d="m527.469 392.823-92.741-32.298a6.369 6.369 0 0 1-3.631-3.238 6.369 6.369 0 0 1-.282-4.858l24.1-69.201a4.665 4.665 0 0 1 5.931-2.867l95.876 33.39a4.747 4.747 0 0 1 2.917 6.034l-24.074 69.125a6.369 6.369 0 0 1-3.238 3.631 6.369 6.369 0 0 1-4.858.282Z"/><path fill="#fff" d="m442.642 356.548 81.096 28.242a6.163 6.163 0 0 0 7.85-3.795l19.461-55.879a6.17 6.17 0 0 0-3.795-7.851l-81.096-28.242a6.167 6.167 0 0 0-7.851 3.795l-19.46 55.879a6.179 6.179 0 0 0 .271 4.711 6.162 6.162 0 0 0 3.524 3.14Z"/><path fill="#f7a600" d="m463.008 317.288-4.016-1.399a.868.868 0 0 1-.536-1.108l1.399-4.016a.87.87 0 0 1 1.108-.535l4.016 1.398a.87.87 0 0 1 .535 1.108l-1.398 4.016a.871.871 0 0 1-1.108.536Z"/><path fill="#3F3D56" d="m459.383 327.694-4.016-1.399a.868.868 0 0 1-.536-1.107l1.399-4.017a.869.869 0 0 1 1.108-.535l4.016 1.399a.87.87 0 0 1 .535 1.107l-1.398 4.017a.874.874 0 0 1-1.108.535Z"/><path fill="#CCC" d="m455.76 338.1-4.016-1.398a.873.873 0 0 1-.536-1.108l1.399-4.016a.868.868 0 0 1 1.108-.536l4.016 1.399a.87.87 0 0 1 .535 1.108l-1.398 4.016a.87.87 0 0 1-1.108.535ZM489.996 324.435l-19.351-6.739a.863.863 0 0 1-.499-.443.872.872 0 0 1 .133-.958.88.88 0 0 1 .601-.29.878.878 0 0 1 .337.048l19.351 6.739a.875.875 0 0 1 .584.772.859.859 0 0 1-.219.63.865.865 0 0 1-.601.289.873.873 0 0 1-.336-.048ZM486.37 334.841l-19.351-6.739a.872.872 0 0 1-.092-1.605.867.867 0 0 1 .665-.038l19.351 6.739a.865.865 0 0 1 .584.771.897.897 0 0 1-.047.337.887.887 0 0 1-.444.497.859.859 0 0 1-.666.038ZM482.747 345.247l-19.351-6.739a.87.87 0 0 1 .573-1.643l19.35 6.739a.873.873 0 0 1 .536 1.108.874.874 0 0 1-1.108.535Z"/><path fill="#f7a600" d="M534.244 350.884a18.231 18.231 0 0 0-10.827-24.249l-6.36 18.263 17.187 5.986Z"/><path fill="#3F3D56" d="m515.206 346.009 6.36-18.264a18.232 18.232 0 0 0-19.426 4.884 18.238 18.238 0 0 0-3.222 19.77 18.233 18.233 0 0 0 26.849 7.681 18.222 18.222 0 0 0 6.626-8.086l-17.187-5.985Z"/><path fill="#FFB8B8" d="M537.977 319.811a6.073 6.073 0 0 1 1.786-4.81 6.063 6.063 0 0 1 4.835-1.718l8.969-19.594 5.934 9.497-9.427 17.15a6.097 6.097 0 0 1-12.097-.525Z"/><path fill="#3F3D56" d="M553.504 312.911a2.722 2.722 0 0 1-1.546-.482l-4.235-2.932a2.73 2.73 0 0 1-1.078-2.926l4.978-18.802-6.017-34.91a8.733 8.733 0 0 1 2.526-6.2 8.74 8.74 0 0 1 14.957 6.115l4.93 21.783a27.96 27.96 0 0 1-2.687 19.501l-9.443 17.432a2.715 2.715 0 0 1-2.385 1.421Z"/><path fill="#CCC" d="M599.397 420.712H484.824a.605.605 0 0 1-.427-1.03.604.604 0 0 1 .427-.176h114.573a.603.603 0 1 1 0 1.206Z"/><path fill="#A0616A" d="m295.804 413.209 7.393-.001 3.517-28.515h-10.911l.001 28.516Z"/><path fill="#2F2E41" d="m293.918 410.796 14.559-.001h.001a9.28 9.28 0 0 1 9.278 9.278v.302h-23.838v-9.579Z"/><path fill="#A0616A" d="m266.255 413.209 7.393-.001 3.517-28.515h-10.911l.001 28.516Z"/><path fill="#2F2E41" d="m264.369 410.796 14.559-.001h.001a9.28 9.28 0 0 1 9.278 9.278v.302H264.37l-.001-9.579Z"/><path fill="#A0616A" d="M297.279 215.793c8.18 0 14.811-6.631 14.811-14.81 0-8.18-6.631-14.811-14.811-14.811-8.179 0-14.81 6.631-14.81 14.811 0 8.179 6.631 14.81 14.81 14.81Z"/><path fill="#2F2E41" d="M307.239 407.056H293.52a2.702 2.702 0 0 1-2.517-1.698 2.727 2.727 0 0 1-.197-1.049l.797-65.144a.905.905 0 0 0-1.802-.121l-7.984 65.626a2.717 2.717 0 0 1-2.694 2.386h-13.851a2.712 2.712 0 0 1-2.705-2.925l9.146-117.03.249-.027 43.796-4.73-5.809 122.127a2.707 2.707 0 0 1-2.71 2.585Z"/><path fill="#3F3D56" d="M272.246 294.284a2.707 2.707 0 0 1-2.704-2.628c-.239-7.4-.649-33.004 4.114-51.802a24.675 24.675 0 0 1 22.789-18.596 24.833 24.833 0 0 1 24.458 15.692c8.005 20.324 15.568 45.375 6.139 49.304-12.359 5.149-44.939 7.444-54.63 8.025a2.318 2.318 0 0 1-.166.005Z"/><path fill="#A0616A" d="M328.852 186.013c.233.239.484.46.752.659l-1.555 29.865-6.467 3.311 3.721 10.413 12.018-4.749a4.826 4.826 0 0 0 3.031-4.933l-3.149-33.877a6.336 6.336 0 0 0 2.3-6.819 6.336 6.336 0 0 0-5.565-4.563 6.331 6.331 0 0 0-5.086 10.693Z"/><path fill="#3F3D56" d="m328.172 217.651 4.55 12.928a2.71 2.71 0 0 1-.206 2.25 2.724 2.724 0 0 1-1.838 1.314l-13.414 2.598a7.537 7.537 0 0 1-4.962-14.232l12.045-6.358a2.716 2.716 0 0 1 3.218.516c.271.28.478.616.607.984Z"/><path fill="#A0616A" d="M264.7 186.013a6.28 6.28 0 0 1-.752.659l1.555 29.865 6.467 3.311-3.721 10.413-12.018-4.749a4.826 4.826 0 0 1-3.031-4.933l3.149-33.877a6.336 6.336 0 0 1-2.299-6.819 6.327 6.327 0 0 1 9.242-3.74 6.325 6.325 0 0 1 3.091 6.498 6.334 6.334 0 0 1-1.683 3.372Z"/><path fill="#3F3D56" d="M266.951 216.023a2.712 2.712 0 0 1 2.256.127l12.044 6.357a7.54 7.54 0 0 1 4.617 9.59 7.536 7.536 0 0 1-9.578 4.642l-13.415-2.597a2.705 2.705 0 0 1-1.838-1.315 2.702 2.702 0 0 1-.205-2.25l4.549-12.928a2.698 2.698 0 0 1 1.57-1.626Z"/><path fill="#2F2E41" d="M303.032 203.508a9.742 9.742 0 0 1 5.452-9.147c4.502-2.324 7.33-7.281 6.091-11.808-1.586-5.794-9.473-9.552-15.863-7.559a29.299 29.299 0 0 0-4.981 2.316l-4.175 2.237a43.376 43.376 0 0 0-5.146 3.038 17.082 17.082 0 0 0-6.796 15.998c.822 5.891 4.68 11.293 9.96 14.992a16.855 16.855 0 0 0 6.826 3.034c2.531.417 5.349-.057 7.199-1.631 2.893-2.46 2.594-6.58 1.658-10.02a7.342 7.342 0 0 1-.225-1.45Z"/><path fill="#CCC" d="M353.367 420.712H238.794a.603.603 0 0 1 0-1.206h114.573a.604.604 0 1 1 0 1.206Z"/><path fill="#E6E6E6" d="M166.378 310.706 71.839 349.49a6.622 6.622 0 0 1-8.632-3.61l-28.94-70.542a4.853 4.853 0 0 1 2.645-6.324l97.735-40.096a4.937 4.937 0 0 1 6.433 2.691l28.908 70.465a6.62 6.62 0 0 1-3.61 8.632Z"/><path fill="#fff" d="m75.262 340.933 82.668-33.914a6.418 6.418 0 0 0 3.501-8.371l-23.369-56.962a6.402 6.402 0 0 0-1.384-2.086 6.404 6.404 0 0 0-4.53-1.895 6.413 6.413 0 0 0-2.457.48l-82.667 33.914a6.416 6.416 0 0 0-3.501 8.371l23.369 56.963a6.422 6.422 0 0 0 3.46 3.483 6.401 6.401 0 0 0 4.91.017Z"/><path fill="#E6E6E6" d="m137.606 257.22-1.215.499.083.202 1.215-.498-.083-.203ZM134.019 258.929l-2.456 1.007-.083-.202 2.456-1.007.083.202Zm-4.911 2.015-2.455 1.007-.083-.203 2.455-1.007.083.203Zm-4.911 2.014-2.455 1.008-.083-.203 2.455-1.007.083.202Zm-4.91 2.015-2.456 1.007-.083-.202 2.456-1.008.083.203Zm-4.911 2.014-2.455 1.008-.083-.203 2.455-1.007.083.202Zm-4.911 2.015-2.455 1.007-.083-.202 2.455-1.008.083.203Zm-4.91 2.015-2.456 1.007-.083-.203 2.456-1.007.083.203Zm-4.91 2.014-2.456 1.008-.083-.203 2.455-1.007.083.202Zm-4.912 2.015-2.455 1.007-.083-.202 2.455-1.008.083.203Zm-4.91 2.014-2.456 1.008-.083-.203 2.456-1.007.083.202Zm-4.91 2.015-2.456 1.007-.083-.202 2.455-1.008.083.203ZM80 281.09l-2.455 1.007-.083-.203 2.455-1.007.083.203Zm-4.91 2.014-2.456 1.007-.083-.202 2.456-1.007.083.202Zm-4.91 2.015-2.456 1.007-.083-.203 2.455-1.007.083.203Zm-4.912 2.014-2.455 1.008-.083-.203 2.455-1.007.083.202Zm-4.91 2.015-2.456 1.007-.083-.202 2.456-1.008.083.203ZM55.364 290.96l-1.216.499.083.203 1.216-.499-.083-.203ZM105.43 292.431l-1.215.499.083.202 1.215-.498-.083-.203ZM101.878 294.124l-2.42.993-.082-.203 2.419-.992.083.202Zm-4.838 1.985-2.419.992-.083-.202 2.419-.992.083.202Zm-4.838 1.985-2.419.992-.083-.203 2.42-.992.082.203Zm-4.837 1.984-2.42.993-.082-.203 2.418-.992.084.202Zm-4.838 1.985-2.419.992-.083-.202 2.419-.992.083.202Zm-4.838 1.985-2.419.992-.083-.202 2.419-.993.083.203Zm-4.838 1.984-2.418.993-.084-.203 2.42-.992.082.202Zm-4.837 1.985-2.42.992-.082-.202 2.419-.992.083.202ZM63.092 309.798l-1.215.499.083.202 1.215-.498-.083-.203ZM85.385 311.066l-1.215.498.083.203 1.215-.499-.083-.202ZM81.765 312.789l-2.489 1.02-.083-.202 2.489-1.021.083.203Zm-4.978 2.041-2.488 1.021-.083-.202 2.488-1.021.083.202Zm-4.977 2.042-2.489 1.021-.083-.202 2.489-1.021.083.202ZM66.749 318.712l-1.216.499.083.203 1.216-.499-.083-.203ZM91.626 326.277l-1.216.498.083.203 1.216-.499-.084-.202ZM88.005 327.999l-2.489 1.021-.083-.202 2.489-1.021.083.202Zm-4.977 2.042-2.49 1.021-.082-.202 2.489-1.021.083.202Zm-4.978 2.042-2.488 1.021-.084-.202 2.49-1.021.082.202ZM72.989 333.921l-1.216.499.084.202 1.215-.498-.083-.203Z"/><path fill="#f7a600" d="m78.773 331.968 70.056-28.74a6.925 6.925 0 0 0 3.773-9.023l-14.154-34.502-.137.061-17.192 41.106-12.75-5.331a1.651 1.651 0 0 0-1.469.092c-.332.2-.589.503-.731.864l-9.01 21.54-9.322-3.897a1.668 1.668 0 0 0-1.811.354 1.668 1.668 0 0 0-.362.538c-.06.146-5.808 14.249-6.89 16.938Z"/><path fill="#3F3D56" d="m78.557 332.291-.201-.084 7.208-17.239A1.865 1.865 0 0 1 88 313.97l9.139 3.821 8.958-21.422a1.861 1.861 0 0 1 2.435-.999l12.566 5.255 17.28-41.32.202.084-17.364 41.523-12.768-5.34a1.654 1.654 0 0 0-1.257-.004 1.639 1.639 0 0 0-.892.886l-9.043 21.624-9.34-3.906a1.643 1.643 0 0 0-2.149.881l-7.209 17.238ZM85.427 312.7a1.533 1.533 0 1 0 0-3.065 1.533 1.533 0 0 0 0 3.065Z"/><path fill="#3F3D56" d="M105.47 294.063a1.532 1.532 0 1 0 .001-3.065 1.532 1.532 0 0 0-.001 3.065ZM136.681 258.802a1.533 1.533 0 1 0 0-3.066 1.533 1.533 0 0 0 0 3.066Z"/><path fill="#FFB8B8" d="M50.896 309.428a6.097 6.097 0 0 0 3.208-4.031 6.084 6.084 0 0 0-1.031-5.046l4.552-44.505h-9.837l-3.618 43.457a6.117 6.117 0 0 0-1.134 8.05 6.123 6.123 0 0 0 7.86 2.075ZM59.927 231.284c7.687 0 13.918-6.231 13.918-13.917 0-7.687-6.231-13.918-13.918-13.918-7.686 0-13.917 6.231-13.917 13.918 0 7.686 6.23 13.917 13.917 13.917Z"/><path fill="#FF6584" d="M62.548 281.764a2.542 2.542 0 0 1-2.453-1.869c-1.115-4.052-4.016-10.901-8.623-20.36a16.862 16.862 0 0 1 9.577-23.284 16.85 16.85 0 0 1 13.1.792 16.844 16.844 0 0 1 8.562 9.946c3.57 11.194 3.398 23.184 3.158 27.82a2.554 2.554 0 0 1-2.003 2.36l-20.771 4.536c-.18.039-.363.059-.547.059Z"/><path fill="#FFB8B8" d="M82.663 413.925h6.947l3.305-26.796-10.253.001.001 26.795Z"/><path fill="#2F2E41" d="m103.008 420.375-21.834.001v-8.436h13.398a8.434 8.434 0 0 1 8.436 8.435Z"/><path fill="#FFB8B8" d="m13.195 404.921 6.088 3.347 15.807-21.889-8.985-4.94-12.91 23.482Z"/><path fill="#2F2E41" d="M27.916 420.375 8.783 409.856l4.064-7.392 11.74 6.455a8.435 8.435 0 0 1 3.329 11.456ZM82.337 399.051a2.546 2.546 0 0 1-2.526-2.222l-8.688-66.949a1.417 1.417 0 0 0-2.645-.502l-36.209 65.693a2.567 2.567 0 0 1-3.14 1.152l-7.893-3.007a2.558 2.558 0 0 1-1.43-1.366 2.548 2.548 0 0 1-.024-1.978l25.082-61.616a1.97 1.97 0 0 0 .129-.488c3.397-26.295 12.04-39.667 14.609-43.139a1.97 1.97 0 0 0 .28-1.798l-.352-1.059a2.547 2.547 0 0 1 .49-2.48c9.255-10.541 25.384-4.789 25.546-4.73l.081.03.05.069c18.087 24.804 11.4 105.367 9.876 121.265a2.543 2.543 0 0 1-2.343 2.294l-10.695.824a2.636 2.636 0 0 1-.198.007Z"/><path fill="#FFB8B8" d="M114.034 233.535c-.07.306-.115.617-.136.93l-24.342 14.042-5.916-3.406-6.308 8.258 9.888 7.048a4.534 4.534 0 0 0 5.44-.133l25.1-19.802a5.95 5.95 0 0 0 6.552-1.673 5.943 5.943 0 0 0 .753-6.72 5.956 5.956 0 0 0-6.019-3.083 5.952 5.952 0 0 0-5.012 4.539Z"/><path fill="#FF6584" d="m88.742 249.171-7.868 10.196a2.544 2.544 0 0 1-1.88.989 2.546 2.546 0 0 1-1.976-.778l-8.905-9.248a7.082 7.082 0 0 1 8.684-11.188l11.17 6.246a2.56 2.56 0 0 1 1.254 1.714 2.553 2.553 0 0 1-.48 2.069ZM58.25 266.887l-12.675-2.289a2.552 2.552 0 0 1-2.083-2.245 2.552 2.552 0 0 1 .12-1.08l4.11-12.164a7.082 7.082 0 0 1 13.93 2.557l-.401 12.792a2.552 2.552 0 0 1-3.002 2.429Z"/><path fill="#2F2E41" d="M62.13 214.167c3.577 2.448 8.274 4.965 11.927 2.357a6.648 6.648 0 0 0 2.182-7.664c-1.749-5.002-6.556-7.205-11.152-8.893-5.975-2.195-12.48-3.941-18.649-2.369-6.168 1.572-11.62 7.544-10.506 13.811.895 5.04 5.65 9.234 4.975 14.308-.68 5.107-6.423 7.795-11.493 8.708-5.07.912-10.744 1.205-14.388 4.847-4.648 4.646-3.487 12.95.886 17.855 4.374 4.906 10.975 7.129 17.37 8.64 8.475 2.003 17.64 3.056 25.688-.268 8.049-3.324 14.311-12.271 11.98-20.66-.985-3.544-3.305-6.539-5.547-9.454-2.242-2.916-4.512-5.965-5.367-9.542-.713-2.981-.185-6.442 1.791-8.678a2.517 2.517 0 0 0 .337-2.939l-.034-.059Z"/><path fill="#CCC" d="M115.176 420.712H.603a.604.604 0 0 1 0-1.206h114.573a.602.602 0 0 1 .426 1.029.603.603 0 0 1-.426.177Z"/></g><defs><clipPath id="a"><path fill="#fff" d="M0 0h600v420.712H0z"/></clipPath></defs></svg>