<svg width="28" height="28" viewBox="0 0 28 28" fill="none" xmlns="http://www.w3.org/2000/svg">
<path d="M13.8996 4L5.9856 6.5529C5.1595 6.81939 4.59961 7.58831 4.59961 8.45633L4.59961 15.7209C4.59961 21.093 10.7996 25 13.8996 25C16.9996 25 23.1996 21.093 23.1996 15.7209L23.1996 8.45632C23.1996 7.58831 22.6397 6.81939 21.8136 6.55291L13.8996 4Z" stroke="black" stroke-width="2"/>
<path d="M14.0005 18.92C12.2984 18.9174 10.6586 19.512 9.41213 20.5837L8 19.1763C9.63043 17.7753 11.7746 16.9976 14.0005 17C16.316 17 18.4259 17.8256 20 19.1763L18.5879 20.5837C17.3417 19.5122 15.7023 18.9176 14.0005 18.92Z" fill="#F7A600"/>
<circle cx="14" cy="12" r="3" stroke="#F7A600" stroke-width="2"/>
</svg>
